<svg width="296" height="146" viewBox="0 0 296 146" fill="none" xmlns="http://www.w3.org/2000/svg">
<path d="M295.745 136.974C295.84 138.238 295.92 139.503 295.983 140.769C296.106 143.225 294.093 145.348 291.445 145.348C288.874 145.348 286.661 143.237 286.507 140.471C286.47 139.799 286.428 139.128 286.381 138.456C286.187 135.693 288.117 133.322 290.668 132.999C293.296 132.668 295.559 134.521 295.745 136.974Z" fill="#DADADA"/>
<path d="M248.034 38.8682C272.075 60.8687 288.195 90.1924 293.89 122.279C294.319 124.701 292.588 127.059 289.961 127.391C287.41 127.713 284.95 125.896 284.451 123.171C279.048 93.6796 264.229 66.7235 242.223 46.3593C240.19 44.4775 239.974 41.4268 241.613 39.446C243.301 37.4056 246.219 37.2074 248.034 38.8682Z" fill="#DADADA"/>
<path d="M146.092 0.0122541C178.677 -0.406826 210.502 9.93373 236.618 29.4258C238.589 30.8972 238.942 33.8016 237.254 35.842C235.615 37.8228 232.578 38.1823 230.348 36.5374C206.221 18.7376 176.966 9.23189 146.984 9.45083C144.214 9.47107 141.968 7.39504 141.807 4.82937C141.64 2.18645 143.632 0.0438898 146.092 0.0122541Z" fill="#DADADA"/>
<path d="M45.1852 41.4686C68.6518 18.8571 98.9298 4.60937 131.31 0.941155C133.755 0.664247 136 2.54023 136.166 5.18314C136.328 7.74881 134.36 10.0899 131.608 10.4171C101.836 13.9576 74.0024 27.055 52.2967 47.7384C50.2908 49.6497 47.2326 49.6737 45.3586 47.9139C43.4282 46.1011 43.4138 43.1755 45.1852 41.4686Z" fill="#DADADA"/>
<path d="M0.00533767 140.767C1.63312 108.22 13.9516 77.1066 35.045 52.2665C36.6373 50.3914 39.5581 50.2221 41.4885 52.0349C43.3625 53.7947 43.5305 56.8484 41.7489 58.9703C22.4693 81.9319 11.1454 110.533 9.48131 140.469C9.32753 143.235 7.11459 145.346 4.54384 145.346C1.8957 145.346 -0.117541 143.224 0.00533767 140.767Z" fill="#DADADA"/>
</svg>
