<svg width="297" height="146" viewBox="0 0 297 146" fill="none" xmlns="http://www.w3.org/2000/svg">
<path d="M0.981898 140.588C2.81214 103.986 18.1586 69.2567 44.1959 43.2193C70.2332 17.182 104.963 1.83558 141.564 0.00533575C144.021 -0.117518 146.144 1.89562 146.144 4.54388C146.144 7.11464 144.033 9.32756 141.267 9.48131C107.282 11.3702 75.0706 25.7049 50.876 49.8995C26.6814 74.0941 12.3467 106.305 10.4579 140.29C10.3041 143.056 8.09121 145.167 5.52044 145.167C2.87219 145.167 0.859045 143.045 0.981898 140.588Z" fill="#DADADA"/>
<path d="M296.721 136.794C296.817 138.058 296.897 139.323 296.96 140.589C297.083 143.046 295.07 145.168 292.422 145.168C289.85 145.168 287.638 143.058 287.484 140.292C287.447 139.62 287.404 138.948 287.357 138.277C287.163 135.513 289.094 133.142 291.645 132.82C294.272 132.488 296.535 134.341 296.721 136.794Z" fill="#DADADA"/>
<path d="M156.377 0.00533916C189.796 1.67697 221.751 14.6229 246.959 36.8472C272.168 59.0715 289.017 89.1518 294.864 122.098C295.294 124.52 293.562 126.879 290.935 127.211C288.385 127.533 285.924 125.716 285.425 122.991C279.828 92.4417 264.12 64.5703 240.712 43.9336C217.304 23.2969 187.684 11.2052 156.674 9.48131C153.908 9.32751 151.797 7.11457 151.797 4.54381C151.797 1.89575 153.92 -0.117559 156.377 0.00533916Z" fill="#DADADA"/>
</svg>
