<svg width="76" height="285" viewBox="0 0 76 285" fill="none" xmlns="http://www.w3.org/2000/svg">
<path d="M34.6731 -7.93076C35.6809 -11.0325 40.0691 -11.0325 41.0769 -7.93075L45.6226 6.05952C46.0733 7.44666 47.366 8.38582 48.8245 8.38582L63.5347 8.38583C66.7961 8.38583 68.1521 12.5592 65.5136 14.4762L53.6128 23.1226C52.4328 23.9799 51.9391 25.4995 52.3898 26.8867L56.9355 40.877C57.9433 43.9787 54.3932 46.558 51.7547 44.641L39.8539 35.9945C38.6739 35.1372 37.0761 35.1372 35.8961 35.9945L23.9953 44.641C21.3568 46.558 17.8067 43.9787 18.8145 40.877L23.3602 26.8867C23.8109 25.4995 23.3172 23.9799 22.1372 23.1226L10.2364 14.4762C7.59788 12.5592 8.9539 8.38583 12.2153 8.38583L26.9255 8.38582C28.384 8.38582 29.6767 7.44666 30.1274 6.05951L34.6731 -7.93076Z" fill="white"/>
<path d="M34.6731 67.8544C35.6809 64.7527 40.0691 64.7527 41.0769 67.8544L45.6226 81.8447C46.0733 83.2318 47.366 84.171 48.8245 84.171L63.5347 84.171C66.7961 84.171 68.1521 88.3444 65.5136 90.2613L53.6128 98.9078C52.4328 99.7651 51.9391 101.285 52.3898 102.672L56.9355 116.662C57.9433 119.764 54.3932 122.343 51.7547 120.426L39.8539 111.78C38.6739 110.922 37.0761 110.922 35.8961 111.78L23.9953 120.426C21.3568 122.343 17.8067 119.764 18.8145 116.662L23.3602 102.672C23.8109 101.285 23.3172 99.7651 22.1372 98.9078L10.2364 90.2613C7.59788 88.3444 8.9539 84.171 12.2153 84.171L26.9255 84.171C28.384 84.171 29.6767 83.2318 30.1274 81.8447L34.6731 67.8544Z" fill="white"/>
<path d="M34.6731 143.64C35.6809 140.538 40.0691 140.538 41.0769 143.64L45.6226 157.63C46.0733 159.017 47.366 159.956 48.8245 159.956L63.5347 159.956C66.7961 159.956 68.1521 164.13 65.5136 166.046L53.6128 174.693C52.4328 175.55 51.9391 177.07 52.3898 178.457L56.9355 192.447C57.9433 195.549 54.3932 198.128 51.7547 196.211L39.8539 187.565C38.6739 186.708 37.0761 186.708 35.8961 187.565L23.9953 196.211C21.3568 198.128 17.8067 195.549 18.8145 192.447L23.3602 178.457C23.8109 177.07 23.3172 175.55 22.1372 174.693L10.2364 166.046C7.59788 164.13 8.9539 159.956 12.2153 159.956L26.9255 159.956C28.384 159.956 29.6767 159.017 30.1274 157.63L34.6731 143.64Z" fill="white"/>
<path d="M34.6731 219.425C35.6809 216.323 40.0691 216.323 41.0769 219.425L45.6226 233.415C46.0733 234.802 47.366 235.741 48.8245 235.741L63.5347 235.741C66.7961 235.741 68.1521 239.915 65.5136 241.832L53.6128 250.478C52.4328 251.335 51.9391 252.855 52.3898 254.242L56.9355 268.232C57.9433 271.334 54.3932 273.913 51.7547 271.996L39.8539 263.35C38.6739 262.493 37.0761 262.493 35.8961 263.35L23.9953 271.996C21.3568 273.913 17.8067 271.334 18.8145 268.232L23.3602 254.242C23.8109 252.855 23.3172 251.335 22.1372 250.478L10.2364 241.832C7.59788 239.915 8.9539 235.741 12.2153 235.741L26.9255 235.741C28.384 235.741 29.6767 234.802 30.1274 233.415L34.6731 219.425Z" fill="white"/>
</svg>
