<svg width="297" height="146" viewBox="0 0 297 146" fill="none" xmlns="http://www.w3.org/2000/svg">
<path d="M285.873 91.288C292.374 106.981 296.12 123.658 296.967 140.586C297.09 143.043 295.077 145.165 292.429 145.165C289.858 145.165 287.645 143.054 287.491 140.288C286.625 124.704 283.133 109.358 277.145 94.9033C271.158 80.4487 262.776 67.1284 252.369 55.4955C250.522 53.4308 250.594 50.3737 252.412 48.5557C254.285 46.683 257.209 46.7606 258.859 48.5846C270.23 61.1537 279.373 75.595 285.873 91.288Z" fill="#DADADA"/>
<path d="M156.384 0.00533573C190.525 1.71252 223.037 15.1795 248.385 38.1134C250.209 39.7637 250.287 42.6882 248.414 44.5608C246.596 46.3786 243.539 46.4507 241.474 44.6033C218.017 23.6168 188.108 11.2279 156.682 9.48131C153.916 9.32756 151.805 7.11464 151.805 4.54388C151.805 1.89562 153.927 -0.117517 156.384 0.00533573Z" fill="#DADADA"/>
<path d="M49.5729 38.1134C74.9211 15.1795 107.433 1.71252 141.574 0.00533575C144.031 -0.117518 146.153 1.89562 146.153 4.54388C146.153 7.11465 144.042 9.32756 141.276 9.48131C109.85 11.2279 79.9406 23.6168 56.4841 44.6033C54.4192 46.4507 51.3617 46.3786 49.5439 44.5608C47.6713 42.6882 47.7488 39.7637 49.5729 38.1134Z" fill="#DADADA"/>
<path d="M0.989711 140.588C2.6969 106.447 16.1639 73.9347 39.0977 48.5866C40.7481 46.7625 43.6726 46.685 45.5452 48.5576C47.363 50.3754 47.4351 53.4329 45.5877 55.4977C24.6012 78.9543 12.2123 108.864 10.4657 140.29C10.3119 143.056 8.09902 145.167 5.52825 145.167C2.88 145.167 0.866857 143.044 0.989711 140.588Z" fill="#DADADA"/>
</svg>
