<svg width="81" height="20" viewBox="0 0 81 20" fill="none" xmlns="http://www.w3.org/2000/svg">
<path d="M7.8771 0H8.76627V19.2572C3.96477 19.2572 0.585938 16.4174 0.585938 11.7141C0.585938 5.32457 7.8771 3.7272 7.8771 0Z" fill="white"/>
<path d="M17.7544 2.76939C15.6871 2.76939 14.9338 2.90954 14.9338 3.68039C14.9338 4.45124 15.7747 4.43372 16.0024 4.73155C16.2652 5.08193 16.2652 8.51571 16.2652 8.76098C16.2652 11.6341 16.2302 13.4036 16.0024 13.754C15.9324 13.8591 15.7747 13.9292 15.5995 14.0168C15.1965 14.2095 14.9338 14.3672 14.9338 14.8051C14.9338 15.5409 15.7572 15.7161 17.7544 15.7161C19.4362 15.7161 20.575 15.6285 20.575 14.8051C20.575 14.2796 20.137 14.1394 19.8917 14.0168C19.6114 13.8941 19.5238 13.8065 19.4888 13.754C19.226 13.3861 19.226 10.0574 19.226 8.76098C19.226 6.08053 19.3136 5.04689 19.4888 4.73155C19.9092 4.01325 20.575 4.53883 20.575 3.68039C20.575 2.83946 19.4888 2.76939 17.7544 2.76939ZM25.2934 7.20176C25.2934 6.90394 25.2759 6.57107 24.6977 6.57107C24.0846 6.57107 23.3312 6.6937 21.7895 7.35944C21.5618 7.46455 21.0888 7.65727 21.0888 8.09525C21.0888 8.46315 21.299 8.58579 21.737 8.70842C21.9297 8.76098 21.9823 8.74346 22.0699 8.83106C22.3151 9.07633 22.3852 9.53183 22.3852 11.6341V12.4575C22.3852 13.6489 22.2626 13.9642 22.1399 14.0868C22.0348 14.1744 21.9122 14.1744 21.5793 14.4022C21.4216 14.5073 21.299 14.6124 21.299 14.9102C21.299 15.576 21.9823 15.7337 23.8393 15.7337C24.6977 15.7337 26.3621 15.8037 26.3621 14.9102C26.3621 14.4898 25.9767 14.3146 25.8015 14.227C25.7314 14.192 25.5562 14.1219 25.4686 13.9992C25.346 13.8416 25.2934 13.4386 25.2934 11.9495C25.2934 9.6895 25.819 8.70842 27.0453 8.70842C28.2191 8.70842 28.5169 9.56687 28.5169 11.8093V12.7904C28.5169 13.8241 28.3593 14.0343 28.2892 14.0868C28.0965 14.2445 28.079 14.1569 27.7286 14.4022C27.5709 14.5073 27.4483 14.6124 27.4483 14.9278C27.4483 15.576 28.114 15.7337 29.9886 15.7337C31.2324 15.7337 32.5113 15.7161 32.5113 14.9102C32.5113 14.4898 32.196 14.3496 31.9332 14.227C31.8631 14.192 31.6879 14.1219 31.6003 13.9992C31.4602 13.8241 31.4427 13.4211 31.4427 12.1597V10.4078C31.4427 9.70702 31.32 8.65586 30.9696 7.97261C30.339 6.74626 29.2352 6.53603 28.2892 6.53603C27.7111 6.53603 27.1329 6.62363 26.5898 6.93898C26.1343 7.21928 25.8891 7.53463 25.7139 7.74486C25.5737 7.92005 25.5387 7.99013 25.416 7.99013C25.346 7.99013 25.2934 7.97261 25.2934 7.74486V7.20176ZM40.8174 7.84998C41.0627 7.46455 41.0977 7.25432 41.0977 7.13169C41.0977 6.72874 40.7648 6.74626 40.3093 6.74626H35.6667C35.2288 6.74626 34.7908 6.46595 34.4929 6.46595C33.9849 6.46595 33.1615 7.27184 33.1615 8.79602C33.1615 9.49679 33.5294 9.54935 33.6695 9.54935C33.9674 9.54935 34.125 9.28656 34.3002 9.04129C34.4229 8.8661 34.6331 8.63835 34.6857 8.58579C35.0711 8.18284 35.6142 8.13029 36.2799 8.13029H36.9106C37.0157 8.13029 37.1909 8.13029 37.1909 8.25292C37.1909 8.323 37.0858 8.49819 37.0508 8.56827L33.4593 14.1569C33.0564 14.7876 33.0388 15.0854 33.0388 15.138C33.0388 15.6285 33.5469 15.6285 33.7571 15.6285H39.0129C39.2757 15.6285 39.2231 15.611 39.6962 15.7687C39.7838 15.8037 39.959 15.8738 40.0991 15.8738C40.5546 15.8738 41.3079 15.2081 41.3079 13.7189C41.3079 13.2109 41.2379 12.8255 40.8174 12.8255C40.3269 12.8255 40.3269 13.5087 39.6962 13.9292C39.4159 14.1219 39.048 14.2445 38.2771 14.2445H37.296C37.2259 14.2445 36.9281 14.2445 36.9281 14.0518C36.9281 13.9467 37.0508 13.7189 37.1033 13.6313L40.8174 7.84998ZM45.7016 7.13169L45.7717 3.52271C45.7892 2.76939 45.5614 2.64675 45.1059 2.64675C44.1949 2.64675 43.1963 3.03217 42.5306 3.29496C42.0401 3.48768 41.4794 3.71543 41.4794 4.17093C41.4794 4.53883 41.6897 4.66147 42.1277 4.7841C42.3204 4.83666 42.3729 4.81914 42.4605 4.90674C42.7934 5.2396 42.8109 6.36084 42.8109 9.11137V10.7056C42.8109 11.8794 42.8284 13.9292 42.5306 14.0868L42.2503 14.2445C42.0401 14.3672 41.7072 14.4723 41.7072 14.9102C41.7072 15.6461 42.6708 15.7337 44.23 15.7337C45.0884 15.7337 46.7527 15.8037 46.7527 14.9102C46.7527 14.3146 46.0169 14.2095 45.8593 13.9992C45.7191 13.8065 45.7016 13.2284 45.7016 13.1233L45.6841 11.932C45.6665 10.4253 45.8593 8.70842 47.436 8.70842C47.8915 8.70842 48.2594 8.83106 48.5397 9.26904C48.82 9.6895 48.9076 10.3202 48.9076 11.932V12.7904C48.9076 13.0882 48.8726 13.9817 48.6799 14.0868L48.382 14.2445C48.0492 14.4197 47.8389 14.5423 47.8389 14.9102C47.8389 15.576 48.5222 15.7337 50.3792 15.7337C51.2377 15.7337 52.902 15.8037 52.902 14.9102C52.902 14.2971 52.1662 14.227 51.991 13.9992C51.7983 13.7365 51.8333 12.8605 51.8333 12.1597V10.6706C51.8333 9.56687 51.7107 8.72594 51.3778 8.04269C50.8172 6.90394 49.9062 6.53603 48.6273 6.53603C47.471 6.53603 46.7703 6.95649 46.2972 7.53463L46.1396 7.74486C46.0695 7.83246 45.9994 7.99013 45.8417 7.99013C45.7366 7.99013 45.7016 7.92005 45.7016 7.74486V7.13169ZM57.5991 7.44703C57.5991 6.57107 57.3538 6.57107 57.0034 6.57107C56.3202 6.57107 55.6194 6.67619 54.0602 7.35944C53.8324 7.46455 53.3594 7.65727 53.3594 8.09525C53.3594 8.44563 53.5697 8.60331 54.0076 8.70842C54.1828 8.74346 54.2529 8.74346 54.3405 8.83106C54.761 9.234 54.6559 10.8633 54.6559 11.9145V12.6152C54.6559 12.8955 54.6909 13.9292 54.4106 14.0868L54.1303 14.2445C53.85 14.4022 53.5872 14.5073 53.5872 14.9278C53.5872 15.6461 54.5332 15.7337 56.11 15.7337C57.967 15.7337 58.6503 15.576 58.6503 14.9102C58.6503 14.5423 58.44 14.4197 58.1072 14.2445L57.8093 14.0868C57.6517 13.9992 57.5816 13.5613 57.5816 12.1948L57.5991 7.44703ZM53.9901 4.15341C53.9901 4.80162 54.6208 5.48487 55.7771 5.48487C57.1086 5.48487 57.7743 4.67899 57.7743 4.03077C57.7743 3.38256 57.1611 2.64675 55.9873 2.64675C54.6909 2.64675 53.9901 3.47016 53.9901 4.15341ZM60.4194 12.7554C60.4194 13.3686 60.3844 13.9817 60.1917 14.0868L59.8938 14.2445C59.561 14.4197 59.3508 14.5423 59.3508 14.9102C59.3508 15.5585 59.8938 15.7337 61.891 15.7337C63.7831 15.7337 64.589 15.576 64.589 14.9102C64.589 14.4898 64.2912 14.3496 63.9408 14.227C63.8707 14.192 63.6605 14.1219 63.5379 13.9992C63.3276 13.789 63.3451 12.9831 63.3451 11.9495C63.3451 10.4779 63.3451 9.91725 63.5554 9.40919C63.6255 9.21648 63.7481 9.00625 64.0109 9.00625C64.2211 9.00625 64.4313 9.18144 64.6065 9.33912C64.8693 9.56687 65.1672 9.84718 65.6577 9.84718C66.3234 9.84718 66.9892 9.28656 66.9892 8.25292C66.9892 7.25432 66.4285 6.58859 65.5526 6.58859C65.2372 6.58859 64.589 6.65867 63.9408 7.53463L63.8357 7.67478C63.7481 7.79742 63.6079 7.99013 63.4678 7.99013C63.2926 7.99013 63.3276 7.6923 63.3101 7.48207C63.2926 7.3244 63.3101 7.25432 63.24 7.02657C63.1875 6.81634 63.0999 6.55355 62.6269 6.55355C61.5056 6.55355 60.1041 7.18425 59.7011 7.35944C59.4383 7.48207 59.0004 7.67478 59.0004 8.13029C59.0004 8.44563 59.1931 8.55075 59.3858 8.62083C59.8763 8.81354 59.8413 8.70842 59.9814 8.83106C60.1566 8.98873 60.4194 9.47927 60.4194 12.0896V12.7554Z" fill="white"/>
<path fill-rule="evenodd" clip-rule="evenodd" d="M72.5312 0H73.4204C73.4204 1.61399 74.7876 2.8286 76.3379 4.2059C78.3678 6.00921 80.7116 8.09141 80.7116 11.7141C80.7116 16.4174 77.3327 19.2572 72.5312 19.2572V0ZM78.1851 11.674C78.1851 12.2264 77.7373 12.6742 77.1849 12.6742C76.6325 12.6742 74.8399 11.674 74.8399 11.674C74.8399 11.674 76.6325 10.6737 77.1849 10.6737C77.7373 10.6737 78.1851 11.1215 78.1851 11.674ZM75.7233 8.1424C75.9996 7.66399 75.8356 7.05226 75.3572 6.77605C74.8788 6.49984 74.2671 6.66375 73.9909 7.14216C73.7147 7.62057 73.6846 9.67314 73.6846 9.67314C73.6846 9.67314 75.4471 8.62081 75.7233 8.1424ZM75.3572 16.5719C74.8788 16.8481 74.267 16.6842 73.9908 16.2057C73.7146 15.7273 73.6846 13.6748 73.6846 13.6748C73.6846 13.6748 75.4471 14.7271 75.7233 15.2055C75.9995 15.6839 75.8356 16.2957 75.3572 16.5719Z" fill="white"/>
</svg>
