<svg width="32" height="32" viewBox="0 0 32 32" fill="none" xmlns="http://www.w3.org/2000/svg">
<path d="M15.4746 13.2333C15.4746 11.8442 15.4746 7.61328 11.734 7.61328C8.42012 7.61328 6.00506 10.5004 6.00506 14.4953C5.95304 16.0703 6.30297 17.6325 7.02199 19.0349C7.32403 19.6007 7.52382 20.2154 7.61213 20.8507L14.7302 20.3605C14.5739 19.8287 14.4825 19.28 14.4578 18.7262C14.4756 17.9936 14.6168 17.2692 14.8755 16.5835C15.2731 15.5114 15.4759 14.3768 15.4748 13.2333H15.4746Z" fill="black"/>
<path d="M11.4241 27.9137H11.7327C12.7008 27.8963 13.626 27.5114 14.3207 26.837C15.0153 26.1626 15.4274 25.2491 15.4734 24.282C15.4615 23.5617 15.364 22.8456 15.1828 22.1484L7.61082 22.666V22.6659C7.58434 23.3572 7.61472 24.0497 7.70161 24.736C7.79997 25.6404 8.24021 26.473 8.93214 27.0636C9.62406 27.6544 10.5154 27.9584 11.4241 27.9137L11.4241 27.9137Z" fill="black"/>
<path d="M26.5399 10.882C26.5399 6.88718 24.1248 4 20.8109 4C17.0703 4 17.0703 8.2309 17.0703 9.62001C17.0702 10.7605 17.2731 11.8918 17.6696 12.9611C17.9282 13.6468 18.0695 14.3713 18.0872 15.1039C18.0618 15.7198 17.958 16.3299 17.7786 16.9197L24.933 17.2829C25.0231 16.6479 25.2228 16.0335 25.5231 15.467C26.2497 14.0511 26.5998 12.4723 26.54 10.882L26.5399 10.882Z" fill="black"/>
<path d="M17.0704 20.6589C17.1163 21.6261 17.5285 22.5396 18.2231 23.214C18.9178 23.8883 19.8429 24.2734 20.811 24.2906H21.1197C22.0269 24.3355 22.9171 24.0328 23.6088 23.4439C24.3005 22.8552 24.7416 22.0247 24.8422 21.122C24.929 20.4387 24.9594 19.7494 24.933 19.0611L17.3246 18.6797C17.1658 19.3279 17.0806 19.9918 17.0703 20.6589L17.0704 20.6589Z" fill="black"/>
</svg>
