<svg width="32" height="32" viewBox="0 0 32 32" fill="none" xmlns="http://www.w3.org/2000/svg">
<path d="M24.3239 12.5916C25.5704 11.1775 24.9474 7.4884 23.6385 5.64392C22.6989 4.31943 19.542 3.53406 17.8363 3.19629C17.1642 3.06328 16.4815 3 15.7964 3H15.2034C14.5183 3 13.8356 3.06328 13.1638 3.19619C11.4581 3.53399 8.30154 4.31943 7.36162 5.64382C6.05277 7.48853 5.42942 11.1775 6.6762 12.5915C7.9227 14.0056 7.98504 15.9735 7.98504 15.9735C7.98504 15.9735 5.49206 19.8472 6.73854 24.3357C7.98505 28.8241 11.5375 30.1151 14.9652 29.9921H16.0344C19.4623 30.1152 23.015 28.8239 24.2616 24.3357C25.5081 19.8474 23.015 15.9735 23.015 15.9735C23.015 15.9736 23.0774 14.0058 24.3239 12.5918L24.3239 12.5916ZM20.5232 12.561C20.0089 13.0222 19.6818 13.3911 18.7469 12.8376C17.8121 12.2841 15.8019 12.2841 15.8019 12.2841H15.1974C15.1974 12.2841 13.1873 12.2841 12.2525 12.8376C11.3177 13.3908 10.9904 13.0221 10.4762 12.561C9.9619 12.0999 8.55969 10.5322 9.68157 8.64132C10.8034 6.75072 15.0104 6.84281 15.0104 6.84281H15.9887C15.9887 6.84281 20.1957 6.75073 21.3176 8.64132C22.4396 10.5322 21.0374 12.1 20.5232 12.561H20.5232Z" fill="black"/>
</svg>
